<svg xmlns="http://www.w3.org/2000/svg" viewBox="0 0 24 24"
     fill="none" stroke="#9333ea" stroke-width="2.4" stroke-linecap="round" stroke-linejoin="round">
  <style>
    @media (prefers-color-scheme: dark) {
      :root { color: #ffffff; }
    }
  </style>
  <g transform="translate(12 12) scale(1.18) translate(-12 -12)" stroke="currentColor">
    <path d="M12 6V2H8"/>
    <path d="M15 11v2"/>
    <path d="M2 12h2"/>
    <path d="M20 12h2"/>
    <path d="M20 16a2 2 0 0 1-2 2H8.828a2 2 0 0 0-1.414.586l-2.202 2.202A.71.71 0 0 1 4 20.286V8a2 2 0 0 1 2-2h12a2 2 0 0 1 2 2z"/>
    <path d="M9 11v2"/>
  </g>
</svg>
